<svg xmlns="http://www.w3.org/2000/svg" width="760" height="340" viewBox="0 0 760 340" font-family="-apple-system, BlinkMacSystemFont, Segoe UI, Helvetica, Arial, sans-serif">
  <rect width="760" height="340" rx="6" fill="#1a1a19"/>
  <text x="62" y="26" fill="#ffffff" font-size="15" font-weight="600">Share of rows carrying a purchase price</text>
  <text x="62" y="45" fill="#c3c2b7" font-size="12.5">ANP fuel price survey, by year of collection</text>
  <line x1="62" y1="294.0" x2="730" y2="294.0" stroke="#3a3a37" stroke-width="1"/>
  <text x="50" y="298.0" fill="#c3c2b7" font-size="11.5" text-anchor="end">0%</text>
  <line x1="62" y1="236.0" x2="730" y2="236.0" stroke="#3a3a37" stroke-width="1"/>
  <text x="50" y="240.0" fill="#c3c2b7" font-size="11.5" text-anchor="end">25%</text>
  <line x1="62" y1="178.0" x2="730" y2="178.0" stroke="#3a3a37" stroke-width="1"/>
  <text x="50" y="182.0" fill="#c3c2b7" font-size="11.5" text-anchor="end">50%</text>
  <line x1="62" y1="120.0" x2="730" y2="120.0" stroke="#3a3a37" stroke-width="1"/>
  <text x="50" y="124.0" fill="#c3c2b7" font-size="11.5" text-anchor="end">75%</text>
  <line x1="62" y1="62.0" x2="730" y2="62.0" stroke="#3a3a37" stroke-width="1"/>
  <text x="50" y="66.0" fill="#c3c2b7" font-size="11.5" text-anchor="end">100%</text>
  <path d="M62.0,147.3 L93.8,156.5 L125.6,157.8 L157.4,147.2 L189.2,164.5 L221.0,170.1 L252.9,186.6 L284.7,202.2 L316.5,200.0 L348.3,200.7 L380.1,208.6 L411.9,211.6 L443.7,202.1 L475.5,194.7 L507.3,205.4 L539.1,208.7 L571.0,243.5 L602.8,294.0 L602.8,294.0 L62.0,294.0 Z" fill="#3987e5" fill-opacity="0.10"/>
  <path d="M62.0,147.3 L93.8,156.5 L125.6,157.8 L157.4,147.2 L189.2,164.5 L221.0,170.1 L252.9,186.6 L284.7,202.2 L316.5,200.0 L348.3,200.7 L380.1,208.6 L411.9,211.6 L443.7,202.1 L475.5,194.7 L507.3,205.4 L539.1,208.7 L571.0,243.5 L602.8,294.0" fill="none" stroke="#3987e5" stroke-width="2" stroke-linejoin="round" stroke-linecap="round"/>
  <path d="M730.0,294.0" fill="none" stroke="#3987e5" stroke-width="2" stroke-linejoin="round" stroke-linecap="round"/>
  <text x="62.0" y="316.0" fill="#c3c2b7" font-size="11.5" text-anchor="middle">2004</text>
  <text x="189.2" y="316.0" fill="#c3c2b7" font-size="11.5" text-anchor="middle">2008</text>
  <text x="316.5" y="316.0" fill="#c3c2b7" font-size="11.5" text-anchor="middle">2012</text>
  <text x="443.7" y="316.0" fill="#c3c2b7" font-size="11.5" text-anchor="middle">2016</text>
  <text x="571.0" y="316.0" fill="#c3c2b7" font-size="11.5" text-anchor="middle">2020</text>
  <text x="730.0" y="316.0" fill="#c3c2b7" font-size="11.5" text-anchor="middle">2025</text>
  <circle cx="62.0" cy="147.3" r="5.5" fill="#3987e5" stroke="#1a1a19" stroke-width="2"/>
  <circle cx="602.8" cy="294.0" r="5.5" fill="#3987e5" stroke="#1a1a19" stroke-width="2"/>
  <circle cx="730.0" cy="294.0" r="5.5" fill="#3987e5" stroke="#1a1a19" stroke-width="2"/>
  <text x="74.0" y="137.3" fill="#ffffff" font-size="13" font-weight="600">63%</text>
  <text x="602.8" y="280.0" fill="#ffffff" font-size="13" font-weight="600" text-anchor="middle">none from 2021</text>
</svg>
